<svg width="11" height="11" viewBox="0 0 11 11" fill="none" xmlns="http://www.w3.org/2000/svg">
<path d="M6.70499 5L10.85 0.855001C10.9319 0.75935 10.9747 0.636312 10.9698 0.510474C10.965 0.384636 10.9128 0.265267 10.8238 0.17622C10.7347 0.0871724 10.6154 0.035006 10.4895 0.0301454C10.3637 0.0252848 10.2406 0.0680881 10.145 0.150001L5.99999 4.295L1.85499 0.145001C1.76083 0.0508493 1.63314 -0.00204468 1.49999 -0.00204468C1.36684 -0.00204468 1.23914 0.0508493 1.14499 0.145001C1.05083 0.239153 0.997941 0.36685 0.997941 0.500001C0.997941 0.633152 1.05083 0.760849 1.14499 0.855001L5.29499 5L1.14499 9.145C1.09265 9.18983 1.05014 9.24498 1.02012 9.30702C0.990112 9.36905 0.973247 9.43661 0.970587 9.50547C0.967928 9.57433 0.97953 9.643 1.00467 9.70716C1.0298 9.77133 1.06793 9.8296 1.11666 9.87833C1.16539 9.92705 1.22366 9.96518 1.28783 9.99032C1.35199 10.0155 1.42065 10.0271 1.48951 10.0244C1.55837 10.0217 1.62594 10.0049 1.68797 9.97486C1.75 9.94485 1.80516 9.90234 1.84999 9.85L5.99999 5.705L10.145 9.85C10.2406 9.93191 10.3637 9.97472 10.4895 9.96986C10.6154 9.965 10.7347 9.91283 10.8238 9.82378C10.9128 9.73474 10.965 9.61537 10.9698 9.48953C10.9747 9.36369 10.9319 9.24065 10.85 9.145L6.70499 5Z" fill="#969696"/>
</svg>
